. 
 
http://www.torrenting.com          :     Once & For all ;)


               www . Torrenting . Com 

(((((((((((((= Enjoy No RAR releases =))))))))))))))))))))


...................................NFO:....................................

.[IMG]http://img573.imageshack.us/img573/5596/024543774365.jpg[/IMG]


[color=blue][size=4][b]The.Art.Of.Getting.By.2011.BDRip.XVID.AC3.HQ.Hive-CM8[/b][/size][/color]


[b]Thx Hive

CM8 Doing It Right The First Time :D

Source: Bluray

Video: 720x304 @bitrate 1700 2pass
Audio: English DTS to AC3 5.1 @384
Sample: yes included
Subs: yes english in srt /subs[/b]


[url]http://www.imdb.com/title/tt1645080/[/url]


General
Complete name                  : The.Art.Of.Getting.By.2011.BDRip.XVID.AC3.HQ.Hive-CM8.avi
Format                         : AVI
Format/Info                    : Audio Video Interleave
File size                      : 1.22 GiB
Duration                       : 1h 23mn
Overall bit rate               : 2 092 Kbps
Writing application            : Nandub v1.0rc2
Writing library                : Nandub build 1853/release

Video
ID                             : 0
Format                         : MPEG-4 Visual
Format profile                 : Advanced Simple@L5
Format settings, BVOP          : 1
Format settings, QPel          : Yes
Format settings, GMC           : No warppoints
Format settings, Matrix        : Default (H.263)
Muxing mode                    : Packed bitstream
Codec ID                       : XVID
Codec ID/Hint                  : XviD
Duration                       : 1h 23mn
Bit rate                       : 1 699 Kbps
Width                          : 720 pixels
Height                         : 304 pixels
Display aspect ratio           : 2.40:1
Frame rate                     : 23.976 fps
Color space                    : YUV
Chroma subsampling             : 4:2:0
Bit depth                      : 8 bits
Scan type                      : Progressive
Compression mode               : Lossy
Bits/(Pixel*Frame)             : 0.324
Stream size                    : 1 012 MiB (81%)
Writing library                : XviD 1.2.1 (UTC 2008-12-04)

Audio
ID                             : 1
Format                         : AC-3
Format/Info                    : Audio Coding 3
Mode extension                 : CM (complete main)
Codec ID                       : 2000
Duration                       : 1h 23mn
Bit rate mode                  : Constant
Bit rate                       : 384 Kbps
Channel(s)                     : 6 channels
Channel positions              : Front: L C R, Side: L R, LFE
Sampling rate                  : 48.0 KHz
Bit depth                      : 16 bits
Compression mode               : Lossy
Stream size                    : 229 MiB (18%)
Alignment                      : Split accross interleaves
Interleave, duration           : 42 ms (1.00 video frame)
Interleave, preload duration   : 500 ms


Plot:

George, a lonely and fatalistic teen who's made it all the way to his senior year without 
ever having done a real day of work, is befriended by Sally, a popular but complicated girl 
who recognizes in him a kindred spirit.

Cast:

Freddie Highmore	... 	George Zinavoy
Emma Roberts	... 	Sally Howe
Sasha Spielberg	... 	Zoe Rubenstein
Marcus Carl Franklin	... 	Will Sharpe


[img]http://img141.imageshack.us/img141/6683/63179735.png[/img]
[img]http://img259.imageshack.us/img259/3637/arar.png[/img]
[img]http://img214.imageshack.us/img214/5900/araraarrararararar.png[/img]
[img]http://img32.imageshack.us/img32/431/ararar.png[/img]
[img]http://img820.imageshack.us/img820/357/arararar.png[/img]
[img]http://img51.imageshack.us/img51/8092/ararararar.png[/img]
[img]http://img198.imageshack.us/img198/4360/arararararar.png[/img]
[img]http://img32.imageshack.us/img32/9115/ararararararar.png[/img]
[img]http://img254.imageshack.us/img254/8466/arararararararar.png[/img]




Greetz

ViSiON,SPK,SiC,SANTi,3LT0N,FUSiON,YanKeeS,MAGNET,THC,T0XiC,LKRG,Feel-Free,FANTASIA-PLAY,FANTASIA-M,FLAWL3SS,
WBZ,ZMG,BHRG,NOVA,D2U,Vik,Rapeseed,SAFC,goldadvance,MEMORY100,KaN1vE,Unevano,Pinnz,Wayne
Mr Hive,and most P2P groups
Great Work Guys :D

LOOKING FOR ANYTHING YOU WANT TO LOOK AND SOUND BETTER

CM8@hushmail.com